<svg width="50" height="50" viewBox="0 0 50 50" fill="none" xmlns="http://www.w3.org/2000/svg">
<path d="M17.7924 46.8397C18.5035 46.5336 19.0015 45.8266 19.0015 45.0035V39.6031C19.0015 39.4061 19.0175 39.2011 19.0425 38.9931C19.0285 38.9971 19.0155 39.0001 19.0015 39.0031C19.0015 39.0031 16.0013 39.0031 15.4012 39.0031C13.9011 39.0031 12.601 38.403 12.001 37.2029C11.3009 35.9028 11.0009 33.7026 9.20074 32.5026C8.90072 32.3025 9.10073 32.0025 9.70078 32.0025C10.3008 32.1025 11.6009 32.9026 12.401 34.0027C13.3011 35.1028 14.2011 36.0028 15.8013 36.0028C18.2884 36.0028 19.6216 35.8778 20.4236 35.4478C21.3577 34.0587 22.6508 33.0026 24.0019 33.0026V32.9776C18.3335 32.7956 14.7122 30.9114 13.026 28.0022C9.36075 28.0442 6.16951 28.4072 4.34837 28.7093C4.29036 28.3822 4.24036 28.0532 4.19735 27.7222C5.99449 27.4262 9.04073 27.0751 12.543 27.0081C12.431 26.7321 12.334 26.4491 12.252 26.1591C8.74071 25.981 5.71047 26.1201 4.06434 26.2561C4.04434 25.924 4.01734 25.593 4.01334 25.257C5.66247 25.122 8.6107 24.987 12.032 25.146C11.953 24.6459 11.902 24.1349 11.902 23.6029C11.902 21.9027 12.502 20.1026 13.6021 18.6025C13.102 16.9023 12.402 13.3021 13.8021 12.002C16.5023 12.002 18.4025 13.3021 19.3025 14.1021C21.0017 13.4011 22.9018 13.001 25.002 13.001C27.1021 13.001 29.0023 13.4011 30.6024 14.1011C31.5025 13.3011 33.4026 12.001 36.1028 12.001C37.6029 13.4011 36.8029 17.0013 36.3028 18.6015C37.4029 20.1016 38.003 21.8017 37.903 23.6019C37.903 24.0859 37.858 24.5529 37.793 25.011C41.2922 24.839 44.3205 24.977 45.9976 25.113C45.9956 25.45 45.9646 25.779 45.9466 26.1121C44.2755 25.974 41.1712 25.832 37.5869 26.0231C37.4979 26.3591 37.3899 26.6861 37.2619 27.0031C40.8082 27.0491 43.9274 27.3922 45.8106 27.6922C45.7676 28.0242 45.7176 28.3532 45.6596 28.6793C43.7474 28.3732 40.4882 28.0152 36.7799 27.9972C35.1148 30.8754 31.5595 32.7526 26.002 32.9716V33.0026C28.6023 33.0026 31.0024 36.9029 31.0024 39.6031V45.0035C31.0024 45.8266 31.5005 46.5336 32.2115 46.8397C41.3732 43.8074 48.0038 35.1668 48.0038 25.002C48.0038 12.319 37.686 2.00018 25.002 2.00018C12.318 2.00018 2.00018 12.319 2.00018 25.002C2.00018 35.1668 8.6307 43.8074 17.7924 46.8397Z" fill="#1C1C1C"/>
</svg>
