<svg width="42" height="42" viewBox="0 0 42 42" fill="none" xmlns="http://www.w3.org/2000/svg">
<path d="M37.0032 0.000305176H5.00069C2.24048 0.000305176 0.000305176 2.24048 0.000305176 5.00069V37.0032C0.000305176 39.7634 2.24048 42.0036 5.00069 42.0036H37.0032C39.7634 42.0036 42.0036 39.7634 42.0036 37.0032V5.00069C42.0036 2.24048 39.7634 0.000305176 37.0032 0.000305176ZM33.7229 29.0026L29.9926 28.9926C29.9926 28.9926 29.9126 29.0026 29.7826 29.0026C29.4826 29.0026 28.8625 28.9225 28.1325 28.4225C26.8224 27.5124 25.5723 25.2523 24.5822 25.2523C24.5122 25.2523 24.4522 25.2623 24.3922 25.2823C23.5321 25.5523 23.2721 26.4124 23.2721 27.4624C23.2721 27.8325 23.0121 28.0025 22.312 28.0025H20.3819C18.2217 28.0025 16.1316 27.9525 13.7814 25.3823C10.3211 21.592 7.08085 14.8515 7.08085 14.8515C7.08085 14.8515 6.90084 14.4614 7.09086 14.2314C7.27087 14.0214 7.6909 14.0014 7.85091 14.0014C7.89092 14.0014 7.91092 14.0014 7.91092 14.0014H11.9112C11.9112 14.0014 12.2813 14.0714 12.5513 14.2714C12.7813 14.4414 12.9013 14.7514 12.9013 14.7514C12.9013 14.7514 13.5814 16.0716 14.4314 17.5617C15.8615 20.0219 16.6316 20.8419 17.1816 20.8419C17.2716 20.8419 17.3617 20.8219 17.4517 20.7719C18.2717 20.3219 18.0317 16.6816 18.0317 16.6816C18.0317 16.6816 18.0417 15.3615 17.6117 14.7815C17.2816 14.3214 16.6516 14.1914 16.3716 14.1514C16.1516 14.1214 16.5116 13.6014 16.9916 13.3613C17.6117 13.0613 18.6418 13.0013 19.8818 13.0013H20.4819C21.652 13.0213 21.682 13.1413 22.142 13.2513C23.5221 13.5814 23.0521 14.8715 23.0521 17.9617C23.0521 18.9518 22.8721 20.3419 23.5821 20.8119C23.6321 20.8419 23.7021 20.8619 23.7922 20.8619C24.2522 20.8619 25.2423 20.2719 26.8224 17.6017C27.7025 16.0816 28.3825 14.5714 28.3825 14.5714C28.3825 14.5714 28.5325 14.3014 28.7625 14.1614C28.9826 14.0314 28.9826 14.0314 29.2726 14.0314H29.3026C29.6226 14.0314 32.8028 14.0014 33.5029 14.0014H33.5829C34.253 14.0014 34.863 14.0114 34.973 14.4214C35.133 15.0415 34.483 16.1516 32.7729 18.4517C29.9526 22.222 29.6326 21.942 31.9728 24.1222C34.213 26.2023 34.673 27.2124 34.753 27.3424C35.6831 28.8825 33.7229 29.0026 33.7229 29.0026Z" fill="#1C1C1C"/>
</svg>
