<svg width="50" height="50" viewBox="0 0 50 50" fill="none" xmlns="http://www.w3.org/2000/svg">
<path d="M41.0032 4.00031H9.00069C6.24048 4.00031 4.00031 6.24048 4.00031 9.00069V41.0032C4.00031 43.7634 6.24048 46.0036 9.00069 46.0036H41.0032C43.7634 46.0036 46.0036 43.7634 46.0036 41.0032V9.00069C46.0036 6.24048 43.7634 4.00031 41.0032 4.00031ZM37.7229 33.0026L33.9926 32.9926C33.9926 32.9926 33.9126 33.0026 33.7826 33.0026C33.4826 33.0026 32.8625 32.9225 32.1325 32.4225C30.8224 31.5124 29.5723 29.2523 28.5822 29.2523C28.5122 29.2523 28.4522 29.2623 28.3922 29.2823C27.5321 29.5523 27.2721 30.4124 27.2721 31.4624C27.2721 31.8325 27.0121 32.0025 26.312 32.0025H24.3819C22.2217 32.0025 20.1316 31.9525 17.7814 29.3823C14.3211 25.592 11.0809 18.8515 11.0809 18.8515C11.0809 18.8515 10.9008 18.4614 11.0909 18.2314C11.2709 18.0214 11.6909 18.0014 11.8509 18.0014C11.8909 18.0014 11.9109 18.0014 11.9109 18.0014H15.9112C15.9112 18.0014 16.2813 18.0714 16.5513 18.2714C16.7813 18.4414 16.9013 18.7514 16.9013 18.7514C16.9013 18.7514 17.5814 20.0716 18.4314 21.5617C19.8615 24.0219 20.6316 24.8419 21.1816 24.8419C21.2716 24.8419 21.3617 24.8219 21.4517 24.7719C22.2717 24.3219 22.0317 20.6816 22.0317 20.6816C22.0317 20.6816 22.0417 19.3615 21.6117 18.7815C21.2816 18.3214 20.6516 18.1914 20.3716 18.1514C20.1516 18.1214 20.5116 17.6014 20.9916 17.3613C21.6117 17.0613 22.6418 17.0013 23.8818 17.0013H24.4819C25.652 17.0213 25.682 17.1413 26.142 17.2513C27.5221 17.5814 27.0521 18.8715 27.0521 21.9617C27.0521 22.9518 26.8721 24.3419 27.5821 24.8119C27.6321 24.8419 27.7021 24.8619 27.7922 24.8619C28.2522 24.8619 29.2423 24.2719 30.8224 21.6017C31.7025 20.0816 32.3825 18.5714 32.3825 18.5714C32.3825 18.5714 32.5325 18.3014 32.7625 18.1614C32.9826 18.0314 32.9826 18.0314 33.2726 18.0314H33.3026C33.6226 18.0314 36.8029 18.0014 37.5029 18.0014H37.5829C38.253 18.0014 38.863 18.0114 38.973 18.4214C39.133 19.0415 38.483 20.1516 36.7728 22.4517C33.9526 26.222 33.6326 25.942 35.9728 28.1222C38.213 30.2023 38.673 31.2124 38.753 31.3424C39.6831 32.8825 37.7229 33.0026 37.7229 33.0026Z" fill="#1C1C1C"/>
</svg>
